<svg width="816" height="200" viewBox="0 0 816 200" fill="none" xmlns="http://www.w3.org/2000/svg">
<path d="M262.8 173.6C223.6 173.6 204 149 204 99.8C204 76.4667 208.733 58.7333 218.2 46.6C227.8 34.4667 243.067 28.4 264 28.4C280.8 28.4 295.733 33.0667 308.8 42.4C308.8 49.8667 307.867 59.3333 306 70.8C304.133 71.2 300.267 71.4 294.4 71.4L288.4 46.6C278.933 44.8667 271.333 44 265.6 44C255.067 44 245.8 45.4667 237.8 48.4L234 49.8C233.2 51.1333 232.2 53.1333 231 55.8C229.8 58.3333 228.2 63.7333 226.2 72C224.333 80.2667 223.4 88.7333 223.4 97.4C223.4 116.2 226.467 131.133 232.6 142.2C238.867 153.267 248.8 158.8 262.4 158.8C272.133 158.8 279.467 157.8 284.4 155.8C285.733 155.133 287.667 154.133 290.2 152.8L294.4 128.8L306 129.4C308 143.133 309 154.267 309 162.8C306.2 164.933 300.133 167.267 290.8 169.8C281.6 172.333 272.267 173.6 262.8 173.6ZM360.764 90.8L425.964 91C425.697 74.7333 425.297 58.6667 424.764 42.8C419.831 41.8667 413.897 40.2667 406.964 38L407.564 31H457.564C459.831 35.2667 460.964 39.2667 460.964 43C454.297 43.5333 448.964 43.8 444.964 43.8L442.764 157.4L459.564 159C459.564 162.733 458.431 166.733 456.164 171H410.164L409.564 164C415.831 161.867 421.964 160.267 427.964 159.2L426.364 103.6H360.364C360.097 127.6 359.964 145.533 359.964 157.4L376.764 159C376.764 162.733 375.631 166.733 373.364 171H327.364L326.764 164C333.031 161.867 339.164 160.267 345.164 159.2C343.831 107.467 342.764 68.6667 341.964 42.8C337.031 41.8667 331.097 40.2667 324.164 38L324.764 31H374.764C377.031 35.2667 378.164 39.2667 378.164 43C371.497 43.5333 366.164 43.8 362.164 43.8C361.764 53.9333 361.297 69.6 360.764 90.8ZM510.592 44.8L509.592 93H541.192L542.792 78.6C546.526 78.6 550.526 79.7333 554.792 82V120L547.792 120.6C545.792 114.867 544.459 110.067 543.792 106.2H509.592C509.326 117.8 509.059 134.933 508.792 157.6H554.592L559.392 138.8L570.992 139.6C572.859 147.2 573.792 153.933 573.792 159.8C573.792 165.533 573.659 169.267 573.392 171H476.192L475.592 164C481.459 161.867 487.126 160.333 492.592 159.4C491.792 107.4 491.126 68.7333 490.592 43.4C487.659 43.1333 481.792 41.5333 472.992 38.6L473.992 31H570.392C570.659 32.7333 570.792 35.4 570.792 39C570.792 46.3333 569.859 54.2667 567.992 62.8C565.059 63.4667 561.192 63.8 556.392 63.8L551.592 44.8H510.592ZM643.138 157.6C663.004 157.6 672.938 149.533 672.938 133.4C672.938 125.533 668.071 118.867 658.338 113.4C653.938 110.867 649.071 108.467 643.738 106.2C638.538 103.933 633.271 101.467 627.938 98.8C622.604 96.1333 617.738 93.2667 613.338 90.2C609.071 87.1333 605.538 83.2667 602.738 78.6C600.071 73.9333 598.738 68.6667 598.738 62.8C598.738 53.2 602.604 45.0667 610.338 38.4C618.204 31.6 628.938 28.2 642.538 28.2C656.138 28.2 670.471 32.3333 685.538 40.6C685.538 48.2 684.604 57.7333 682.738 69.2C679.804 69.6 675.938 69.8 671.138 69.8L665.138 46.6C663.538 45.8 660.338 45 655.538 44.2C650.871 43.4 646.738 43 643.138 43C635.404 43 629.404 44.6667 625.138 48C620.871 51.2 618.738 55.7333 618.738 61.6C618.738 67.3333 621.204 72.5333 626.138 77.2C631.204 81.7333 637.271 85.6667 644.338 89C651.538 92.2 658.671 95.5333 665.738 99C672.938 102.467 679.004 107 683.938 112.6C689.004 118.067 691.537 124.467 691.537 131.8C691.537 145.133 687.071 155.467 678.138 162.8C669.204 170 657.538 173.6 643.138 173.6C635.271 173.6 626.738 172.4 617.538 170C608.471 167.467 600.938 164.267 594.938 160.4C595.204 151.467 596.204 141.133 597.938 129.4C600.871 129 604.738 128.8 609.538 128.8L613.738 152.8C616.671 154 621.071 155.133 626.938 156.2C632.938 157.133 638.338 157.6 643.138 157.6ZM757.786 157.6C777.653 157.6 787.586 149.533 787.586 133.4C787.586 125.533 782.719 118.867 772.986 113.4C768.586 110.867 763.719 108.467 758.386 106.2C753.186 103.933 747.919 101.467 742.586 98.8C737.253 96.1333 732.386 93.2667 727.986 90.2C723.719 87.1333 720.186 83.2667 717.386 78.6C714.719 73.9333 713.386 68.6667 713.386 62.8C713.386 53.2 717.253 45.0667 724.986 38.4C732.853 31.6 743.586 28.2 757.186 28.2C770.786 28.2 785.119 32.3333 800.186 40.6C800.186 48.2 799.253 57.7333 797.386 69.2C794.453 69.6 790.586 69.8 785.786 69.8L779.786 46.6C778.186 45.8 774.986 45 770.186 44.2C765.519 43.4 761.386 43 757.786 43C750.053 43 744.053 44.6667 739.786 48C735.519 51.2 733.386 55.7333 733.386 61.6C733.386 67.3333 735.853 72.5333 740.786 77.2C745.853 81.7333 751.919 85.6667 758.986 89C766.186 92.2 773.319 95.5333 780.386 99C787.586 102.467 793.653 107 798.586 112.6C803.653 118.067 806.186 124.467 806.186 131.8C806.186 145.133 801.719 155.467 792.786 162.8C783.853 170 772.186 173.6 757.786 173.6C749.919 173.6 741.386 172.4 732.186 170C723.119 167.467 715.586 164.267 709.586 160.4C709.853 151.467 710.853 141.133 712.586 129.4C715.519 129 719.386 128.8 724.186 128.8L728.386 152.8C731.319 154 735.719 155.133 741.586 156.2C747.586 157.133 752.986 157.6 757.786 157.6Z" fill="white"/>
<path opacity="0.2" d="M175 101.07C174.437 141.289 141.742 174.187 101.523 174.984C91.4305 175.213 81.3918 173.445 71.9844 169.781L100 131.25C79.1875 118.75 55.2891 122.422 41.6406 124.734C38.1796 125.322 34.6231 124.926 31.376 123.592C28.1288 122.258 25.3215 120.039 23.2734 117.187L12.5 100L93.75 50V25H100C109.94 24.999 119.781 26.9738 128.951 30.8097C138.121 34.6455 146.436 40.2659 153.415 47.344C160.394 54.4222 165.896 62.8169 169.601 72.0403C173.307 81.2636 175.142 91.1315 175 101.07Z" fill="#ACACAC"/>
<path d="M96 75C96 76.8542 97.0301 75.9583 96 77.5C97.7131 76.7904 94.9699 79.0417 96 77.5C94.2869 78.2096 95.5686 75.3617 93.75 75C91.9314 74.6383 92.9776 77.3111 91.6665 76C90.3554 74.6889 92.0283 79.3186 91.6665 77.5C91.3048 75.6814 89.9154 74.7131 90.625 73C91.3346 71.2869 90.1248 71.3601 91.6665 70.33C93.2082 69.2998 95.1692 67.5 97.0234 67.5C99.5098 67.5 95.2653 69.7418 97.0234 71.5C98.7816 73.2582 96 72.5136 96 75ZM181.25 101.156C180.898 122.205 172.413 142.301 157.572 157.232C142.731 172.163 122.687 180.77 101.641 181.25H99.9453C80.02 181.39 60.747 174.155 45.8359 160.937C44.5927 159.832 43.8396 158.278 43.7421 156.617C43.6939 155.795 43.8081 154.971 44.0782 154.193C44.3483 153.415 44.7691 152.698 45.3164 152.082C45.8638 151.466 46.527 150.965 47.2682 150.605C48.0095 150.246 48.8142 150.036 49.6365 149.988C51.2973 149.891 52.9287 150.457 54.1719 151.562C58.8807 155.776 64.1688 159.294 69.875 162.008L90.625 133.469C72.8281 125.789 53.5391 129.055 42.6562 130.898C38.0503 131.694 33.3134 131.176 28.9885 129.403C24.6636 127.63 20.9256 124.674 18.2031 120.875L17.9687 120.539L7.20312 103.352C6.76654 102.653 6.4725 101.874 6.33791 101.061C6.20332 100.248 6.23085 99.4166 6.41891 98.6142C6.60698 97.8119 6.95186 97.0546 7.43371 96.3861C7.91556 95.7175 8.52486 95.1509 9.22656 94.7187L87.5 46.5078V25C87.5 23.3424 88.1585 21.7527 89.3306 20.5806C90.5027 19.4085 92.0924 18.75 93.75 18.75H100C110.768 18.7489 121.429 20.8882 131.362 25.0435C141.296 29.1988 150.305 35.2872 157.865 42.9549C165.425 50.6226 171.386 59.7165 175.4 69.708C179.415 79.6996 181.403 90.3894 181.25 101.156ZM168.75 100.984C168.88 91.8735 167.199 82.8276 163.802 74.3725C160.405 65.9174 155.362 58.2218 148.965 51.7332C142.568 45.2445 134.945 40.0922 126.539 36.5758C118.133 33.0594 109.112 31.2491 100 31.25V50C99.9993 51.0672 99.7254 52.1164 99.2044 53.0477C98.6833 53.979 97.9325 54.7614 97.0234 55.3203L21.1406 102.023L28.4531 113.742C29.8323 115.599 31.702 117.035 33.8522 117.888C36.0024 118.741 38.3479 118.977 40.625 118.57C53.125 116.461 78.7266 112.133 101.617 124.961C109.611 124.535 117.138 121.063 122.65 115.257C128.162 109.452 131.239 101.755 131.25 93.75C131.25 92.0924 131.908 90.5027 133.081 89.3306C134.253 88.1585 135.842 87.5 137.5 87.5C139.158 87.5 140.747 88.1585 141.919 89.3306C143.092 90.5027 143.75 92.0924 143.75 93.75C143.735 104.78 139.559 115.398 132.057 123.484C124.555 131.569 114.279 136.527 103.281 137.367L82.1016 166.492C88.3975 168.125 94.8879 168.884 101.391 168.75C119.195 168.335 136.149 161.05 148.704 148.419C161.259 135.788 168.442 118.791 168.75 100.984Z" fill="white"/>
<path d="M94 25L94 77" stroke="white" stroke-width="12" stroke-linecap="round"/>
</svg>
